<?xml version="1.0" encoding="UTF-8" standalone="no"?><!DOCTYPE svg PUBLIC "-//W3C//DTD SVG 1.1//EN" "http://www.w3.org/Graphics/SVG/1.1/DTD/svg11.dtd"><svg width="100%" height="100%" viewBox="0 0 18 18" version="1.1" xmlns="http://www.w3.org/2000/svg" xmlns:xlink="http://www.w3.org/1999/xlink" xml:space="preserve" xmlns:serif="http://www.serif.com/" style="fill-rule:evenodd;clip-rule:evenodd;stroke-linejoin:round;stroke-miterlimit:1.41421;"><circle cx="9" cy="9.754" r="8.246" style="fill-opacity:0.4;"/><circle cx="9" cy="9" r="7.493" style="fill:#fff;"/><path d="M9.097,1.508l0.096,0.002l0.097,0.003l0.095,0.004l0.096,0.005l0.095,0.007l0.095,0.008l0.095,0.01l0.094,0.01l0.094,0.01l0.093,0.013l0.094,0.014l0.092,0.015l0.092,0.016l0.093,0.016l0.091,0.019l0.091,0.019l0.182,0.042l0.179,0.046l0.089,0.025l0.089,0.026l0.088,0.027l0.087,0.027l0.088,0.029l0.087,0.03l0.086,0.031l0.086,0.032l0.085,0.034l0.085,0.034l0.084,0.035l0.084,0.036l0.166,0.075l0.082,0.039l0.081,0.04l0.082,0.04l0.16,0.085l0.08,0.044l0.078,0.045l0.078,0.045l0.078,0.047l0.077,0.047l0.076,0.049l0.076,0.049l0.075,0.05l0.074,0.051l0.075,0.051l0.144,0.107l0.073,0.054l0.141,0.111l0.069,0.057l0.07,0.058l0.068,0.059l0.068,0.059l0.067,0.06l0.066,0.06l0.065,0.062l0.065,0.063l0.064,0.063l0.063,0.064l0.063,0.065l0.062,0.065l0.06,0.066l0.06,0.067l0.059,0.068l0.059,0.068l0.058,0.07l0.057,0.069l0.111,0.141l0.054,0.073l0.107,0.144l0.051,0.075l0.051,0.074l0.05,0.075l0.049,0.076l0.049,0.076l0.047,0.077l0.047,0.078l0.045,0.078l0.045,0.078l0.044,0.08l0.085,0.16l0.04,0.082l0.04,0.081l0.039,0.082l0.075,0.166l0.036,0.084l0.035,0.084l0.034,0.085l0.034,0.085l0.032,0.086l0.031,0.086l0.03,0.087l0.029,0.088l0.027,0.087l0.027,0.088l0.026,0.089l0.025,0.089l0.046,0.179l0.042,0.182l0.019,0.091l0.019,0.091l0.016,0.093l0.016,0.092l0.015,0.092l0.014,0.094l0.013,0.093l0.01,0.094l0.01,0.094l0.01,0.095l0.008,0.095l0.007,0.095l0.005,0.096l0.004,0.095l0.003,0.097l0.002,0.096l0.001,0.097l-0.001,0.097l-0.002,0.096l-0.003,0.097l-0.004,0.095l-0.005,0.096l-0.007,0.095l-0.008,0.095l-0.01,0.095l-0.01,0.094l-0.01,0.094l-0.013,0.093l-0.014,0.094l-0.015,0.092l-0.016,0.092l-0.016,0.093l-0.019,0.091l-0.019,0.091l-0.021,0.091l-0.021,0.091l-0.023,0.089l-0.023,0.09l-0.025,0.089l-0.026,0.089l-0.027,0.088l-0.027,0.087l-0.029,0.088l-0.03,0.087l-0.031,0.086l-0.032,0.086l-0.034,0.085l-0.034,0.085l-0.035,0.084l-0.036,0.084l-0.037,0.083l-0.038,0.083l-0.039,0.082l-0.04,0.081l-0.04,0.082l-0.043,0.08l-0.042,0.08l-0.044,0.08l-0.045,0.078l-0.045,0.078l-0.047,0.078l-0.047,0.077l-0.049,0.076l-0.049,0.076l-0.05,0.075l-0.051,0.074l-0.051,0.075l-0.054,0.072l-0.053,0.072l-0.054,0.073l-0.056,0.071l-0.055,0.07l-0.057,0.069l-0.058,0.07l-0.059,0.068l-0.059,0.068l-0.06,0.067l-0.06,0.066l-0.062,0.065l-0.063,0.065l-0.063,0.064l-0.064,0.063l-0.065,0.063l-0.065,0.062l-0.066,0.06l-0.067,0.06l-0.068,0.059l-0.068,0.059l-0.07,0.058l-0.069,0.057l-0.07,0.055l-0.071,0.056l-0.073,0.054l-0.072,0.053l-0.072,0.054l-0.075,0.051l-0.074,0.051l-0.075,0.05l-0.076,0.049l-0.076,0.049l-0.077,0.047l-0.078,0.047l-0.078,0.045l-0.078,0.045l-0.08,0.044l-0.08,0.042l-0.08,0.043l-0.082,0.04l-0.081,0.04l-0.082,0.039l-0.083,0.038l-0.083,0.037l-0.084,0.036l-0.084,0.035l-0.085,0.034l-0.085,0.034l-0.086,0.032l-0.086,0.031l-0.087,0.03l-0.088,0.029l-0.087,0.027l-0.088,0.027l-0.089,0.026l-0.089,0.025l-0.09,0.023l-0.089,0.023l-0.091,0.021l-0.091,0.021l-0.091,0.019l-0.091,0.019l-0.093,0.016l-0.092,0.016l-0.092,0.015l-0.094,0.014l-0.093,0.013l-0.094,0.01l-0.094,0.01l-0.095,0.01l-0.095,0.008l-0.095,0.007l-0.096,0.005l-0.095,0.004l-0.097,0.003l-0.096,0.002l-0.097,0.001l-0.097,-0.001l-0.096,-0.002l-0.097,-0.003l-0.095,-0.004l-0.096,-0.005l-0.095,-0.007l-0.095,-0.008l-0.095,-0.01l-0.094,-0.01l-0.094,-0.01l-0.093,-0.013l-0.094,-0.014l-0.092,-0.015l-0.092,-0.016l-0.093,-0.016l-0.091,-0.019l-0.091,-0.019l-0.091,-0.021l-0.091,-0.021l-0.089,-0.023l-0.09,-0.023l-0.089,-0.025l-0.089,-0.026l-0.088,-0.027l-0.087,-0.027l-0.088,-0.029l-0.087,-0.03l-0.086,-0.031l-0.086,-0.032l-0.085,-0.034l-0.085,-0.034l-0.084,-0.035l-0.084,-0.036l-0.083,-0.037l-0.083,-0.038l-0.082,-0.039l-0.081,-0.04l-0.082,-0.04l-0.08,-0.043l-0.08,-0.042l-0.08,-0.044l-0.078,-0.045l-0.078,-0.045l-0.078,-0.047l-0.077,-0.047l-0.076,-0.049l-0.076,-0.049l-0.075,-0.05l-0.074,-0.051l-0.075,-0.051l-0.072,-0.054l-0.072,-0.053l-0.073,-0.054l-0.071,-0.056l-0.07,-0.055l-0.069,-0.057l-0.07,-0.058l-0.068,-0.059l-0.068,-0.059l-0.067,-0.06l-0.066,-0.06l-0.065,-0.062l-0.065,-0.063l-0.064,-0.063l-0.063,-0.064l-0.063,-0.065l-0.062,-0.065l-0.06,-0.066l-0.06,-0.067l-0.059,-0.068l-0.059,-0.068l-0.058,-0.07l-0.057,-0.069l-0.055,-0.07l-0.056,-0.071l-0.054,-0.073l-0.053,-0.072l-0.054,-0.072l-0.051,-0.075l-0.051,-0.074l-0.05,-0.075l-0.049,-0.076l-0.049,-0.076l-0.047,-0.077l-0.047,-0.078l-0.045,-0.078l-0.045,-0.078l-0.044,-0.08l-0.042,-0.08l-0.043,-0.08l-0.04,-0.082l-0.04,-0.081l-0.039,-0.082l-0.038,-0.083l-0.037,-0.083l-0.036,-0.084l-0.035,-0.084l-0.034,-0.085l-0.034,-0.085l-0.032,-0.086l-0.031,-0.086l-0.03,-0.087l-0.029,-0.088l-0.027,-0.087l-0.027,-0.088l-0.026,-0.089l-0.025,-0.089l-0.023,-0.09l-0.023,-0.089l-0.021,-0.091l-0.021,-0.091l-0.019,-0.091l-0.019,-0.091l-0.016,-0.093l-0.016,-0.092l-0.015,-0.092l-0.014,-0.094l-0.013,-0.093l-0.01,-0.094l-0.01,-0.094l-0.01,-0.095l-0.008,-0.095l-0.007,-0.095l-0.005,-0.096l-0.004,-0.095l-0.003,-0.097l-0.002,-0.096l-0.001,-0.097l0.001,-0.097l0.002,-0.096l0.003,-0.097l0.004,-0.095l0.005,-0.096l0.007,-0.095l0.008,-0.095l0.01,-0.095l0.01,-0.094l0.01,-0.094l0.013,-0.093l0.014,-0.094l0.015,-0.092l0.016,-0.092l0.016,-0.093l0.019,-0.091l0.019,-0.091l0.021,-0.091l0.021,-0.091l0.023,-0.089l0.023,-0.09l0.025,-0.089l0.026,-0.089l0.027,-0.088l0.027,-0.087l0.029,-0.088l0.03,-0.087l0.031,-0.086l0.032,-0.086l0.034,-0.085l0.034,-0.085l0.035,-0.084l0.036,-0.084l0.037,-0.083l0.038,-0.083l0.039,-0.082l0.04,-0.081l0.04,-0.082l0.043,-0.08l0.042,-0.08l0.044,-0.08l0.045,-0.078l0.045,-0.078l0.047,-0.078l0.047,-0.077l0.049,-0.076l0.049,-0.076l0.05,-0.075l0.051,-0.074l0.051,-0.075l0.054,-0.072l0.053,-0.072l0.054,-0.073l0.056,-0.071l0.055,-0.07l0.057,-0.069l0.058,-0.07l0.059,-0.068l0.059,-0.068l0.06,-0.067l0.06,-0.066l0.062,-0.065l0.063,-0.065l0.063,-0.064l0.064,-0.063l0.065,-0.063l0.065,-0.062l0.066,-0.06l0.067,-0.06l0.068,-0.059l0.068,-0.059l0.07,-0.058l0.069,-0.057l0.07,-0.055l0.071,-0.056l0.073,-0.054l0.072,-0.053l0.072,-0.054l0.075,-0.051l0.074,-0.051l0.075,-0.05l0.076,-0.049l0.076,-0.049l0.077,-0.047l0.078,-0.047l0.078,-0.045l0.078,-0.045l0.08,-0.044l0.08,-0.042l0.08,-0.043l0.082,-0.04l0.081,-0.04l0.082,-0.039l0.083,-0.038l0.083,-0.037l0.084,-0.036l0.084,-0.035l0.085,-0.034l0.085,-0.034l0.086,-0.032l0.086,-0.031l0.087,-0.03l0.088,-0.029l0.087,-0.027l0.088,-0.027l0.089,-0.026l0.089,-0.025l0.09,-0.023l0.089,-0.023l0.091,-0.021l0.091,-0.021l0.091,-0.019l0.091,-0.019l0.093,-0.016l0.092,-0.016l0.092,-0.015l0.094,-0.014l0.093,-0.013l0.094,-0.01l0.094,-0.01l0.095,-0.01l0.095,-0.008l0.095,-0.007l0.096,-0.005l0.095,-0.004l0.097,-0.003l0.096,-0.002l0.097,-0.001l0.097,0.001Zm-0.189,0.417l-0.09,0.001l-0.092,0.003l-0.09,0.004l-0.091,0.005l-0.089,0.007l-0.09,0.007l-0.089,0.008l-0.09,0.01l-0.088,0.01l-0.089,0.013l-0.087,0.012l-0.088,0.014l-0.087,0.015l-0.088,0.016l-0.086,0.018l-0.086,0.018l-0.086,0.019l-0.084,0.02l-0.085,0.022l-0.085,0.022l-0.084,0.024l-0.084,0.024l-0.083,0.025l-0.083,0.026l-0.083,0.028l-0.081,0.028l-0.082,0.029l-0.08,0.03l-0.081,0.032l-0.08,0.032l-0.08,0.033l-0.079,0.034l-0.078,0.035l-0.079,0.036l-0.077,0.036l-0.078,0.039l-0.076,0.038l-0.076,0.04l-0.076,0.04l-0.075,0.041l-0.074,0.043l-0.074,0.042l-0.073,0.045l-0.072,0.044l-0.072,0.046l-0.072,0.046l-0.071,0.048l-0.07,0.048l-0.07,0.049l-0.069,0.05l-0.068,0.05l-0.068,0.051l-0.067,0.053l-0.067,0.052l-0.066,0.054l-0.065,0.055l-0.065,0.055l-0.064,0.056l-0.063,0.057l-0.062,0.057l-0.062,0.058l-0.062,0.06l-0.06,0.059l-0.059,0.06l-0.06,0.062l-0.058,0.062l-0.057,0.062l-0.057,0.063l-0.056,0.064l-0.055,0.065l-0.055,0.065l-0.054,0.066l-0.052,0.067l-0.053,0.067l-0.051,0.068l-0.05,0.068l-0.05,0.069l-0.049,0.07l-0.048,0.07l-0.048,0.071l-0.046,0.072l-0.046,0.072l-0.044,0.072l-0.045,0.073l-0.042,0.074l-0.043,0.074l-0.041,0.075l-0.04,0.076l-0.04,0.076l-0.038,0.076l-0.039,0.078l-0.036,0.077l-0.036,0.079l-0.035,0.078l-0.034,0.079l-0.033,0.08l-0.032,0.08l-0.032,0.081l-0.03,0.08l-0.029,0.082l-0.028,0.081l-0.028,0.083l-0.026,0.083l-0.025,0.083l-0.024,0.084l-0.024,0.084l-0.022,0.085l-0.022,0.085l-0.02,0.084l-0.019,0.086l-0.018,0.086l-0.018,0.086l-0.016,0.088l-0.015,0.087l-0.014,0.088l-0.012,0.087l-0.013,0.089l-0.01,0.088l-0.01,0.09l-0.008,0.089l-0.007,0.09l-0.007,0.089l-0.005,0.091l-0.004,0.09l-0.003,0.092l-0.001,0.09l-0.001,0.092l0.001,0.092l0.001,0.09l0.003,0.092l0.004,0.09l0.005,0.091l0.007,0.089l0.007,0.09l0.008,0.089l0.01,0.09l0.01,0.088l0.013,0.089l0.012,0.087l0.014,0.088l0.015,0.087l0.016,0.088l0.018,0.086l0.018,0.086l0.019,0.086l0.02,0.084l0.022,0.085l0.022,0.085l0.024,0.084l0.024,0.084l0.025,0.083l0.026,0.083l0.028,0.083l0.028,0.081l0.029,0.082l0.03,0.08l0.032,0.081l0.032,0.08l0.033,0.08l0.034,0.079l0.035,0.078l0.036,0.079l0.036,0.077l0.039,0.078l0.038,0.076l0.08,0.152l0.041,0.075l0.085,0.148l0.045,0.073l0.044,0.072l0.092,0.144l0.048,0.071l0.048,0.07l0.049,0.07l0.05,0.069l0.05,0.068l0.051,0.068l0.053,0.067l0.052,0.067l0.109,0.131l0.111,0.129l0.057,0.063l0.057,0.062l0.058,0.062l0.06,0.062l0.119,0.119l0.062,0.06l0.062,0.058l0.062,0.057l0.063,0.057l0.129,0.111l0.131,0.109l0.067,0.052l0.067,0.053l0.068,0.051l0.068,0.05l0.069,0.05l0.07,0.049l0.07,0.048l0.071,0.048l0.144,0.092l0.072,0.044l0.073,0.045l0.148,0.085l0.075,0.041l0.152,0.08l0.076,0.038l0.078,0.039l0.077,0.036l0.079,0.036l0.078,0.035l0.079,0.034l0.08,0.033l0.08,0.032l0.081,0.032l0.08,0.03l0.082,0.029l0.081,0.028l0.083,0.028l0.083,0.026l0.083,0.025l0.084,0.024l0.084,0.024l0.085,0.022l0.085,0.022l0.084,0.02l0.086,0.019l0.086,0.018l0.086,0.018l0.088,0.016l0.087,0.015l0.088,0.014l0.087,0.012l0.089,0.013l0.088,0.01l0.09,0.01l0.089,0.008l0.09,0.007l0.089,0.007l0.091,0.005l0.09,0.004l0.092,0.003l0.09,0.001l0.092,0.001l0.092,-0.001l0.09,-0.001l0.092,-0.003l0.09,-0.004l0.091,-0.005l0.089,-0.007l0.09,-0.007l0.089,-0.008l0.09,-0.01l0.088,-0.01l0.089,-0.013l0.087,-0.012l0.088,-0.014l0.087,-0.015l0.088,-0.016l0.086,-0.018l0.086,-0.018l0.086,-0.019l0.084,-0.02l0.085,-0.022l0.085,-0.022l0.084,-0.024l0.084,-0.024l0.083,-0.025l0.083,-0.026l0.083,-0.028l0.081,-0.028l0.082,-0.029l0.08,-0.03l0.081,-0.032l0.08,-0.032l0.08,-0.033l0.079,-0.034l0.078,-0.035l0.079,-0.036l0.077,-0.036l0.078,-0.039l0.076,-0.038l0.076,-0.04l0.076,-0.04l0.075,-0.041l0.074,-0.043l0.074,-0.042l0.073,-0.045l0.072,-0.044l0.072,-0.046l0.072,-0.046l0.071,-0.048l0.07,-0.048l0.07,-0.049l0.069,-0.05l0.068,-0.05l0.068,-0.051l0.067,-0.053l0.067,-0.052l0.066,-0.054l0.065,-0.055l0.065,-0.055l0.064,-0.056l0.063,-0.057l0.062,-0.057l0.062,-0.058l0.062,-0.06l0.06,-0.059l0.059,-0.06l0.06,-0.062l0.058,-0.062l0.057,-0.062l0.057,-0.063l0.056,-0.064l0.055,-0.065l0.055,-0.065l0.054,-0.066l0.052,-0.067l0.053,-0.067l0.051,-0.068l0.05,-0.068l0.05,-0.069l0.049,-0.07l0.048,-0.07l0.048,-0.071l0.046,-0.072l0.046,-0.072l0.044,-0.072l0.045,-0.073l0.042,-0.074l0.043,-0.074l0.041,-0.075l0.04,-0.076l0.04,-0.076l0.038,-0.076l0.039,-0.078l0.036,-0.077l0.036,-0.079l0.035,-0.078l0.034,-0.079l0.033,-0.08l0.032,-0.08l0.032,-0.081l0.03,-0.08l0.029,-0.082l0.028,-0.081l0.028,-0.083l0.026,-0.083l0.025,-0.083l0.024,-0.084l0.024,-0.084l0.022,-0.085l0.022,-0.085l0.02,-0.084l0.019,-0.086l0.018,-0.086l0.018,-0.086l0.016,-0.088l0.015,-0.087l0.014,-0.088l0.012,-0.087l0.013,-0.089l0.01,-0.088l0.01,-0.09l0.008,-0.089l0.007,-0.09l0.007,-0.089l0.005,-0.091l0.004,-0.09l0.003,-0.092l0.001,-0.09l0.001,-0.092l-0.001,-0.092l-0.001,-0.09l-0.003,-0.092l-0.004,-0.09l-0.005,-0.091l-0.007,-0.089l-0.007,-0.09l-0.008,-0.089l-0.01,-0.09l-0.01,-0.088l-0.013,-0.089l-0.012,-0.087l-0.014,-0.088l-0.015,-0.087l-0.016,-0.088l-0.018,-0.086l-0.018,-0.086l-0.019,-0.086l-0.02,-0.084l-0.022,-0.085l-0.022,-0.085l-0.024,-0.084l-0.024,-0.084l-0.025,-0.083l-0.026,-0.083l-0.028,-0.083l-0.028,-0.081l-0.029,-0.082l-0.03,-0.08l-0.032,-0.081l-0.032,-0.08l-0.033,-0.08l-0.034,-0.079l-0.035,-0.078l-0.036,-0.079l-0.036,-0.077l-0.039,-0.078l-0.038,-0.076l-0.04,-0.076l-0.04,-0.076l-0.041,-0.075l-0.043,-0.074l-0.042,-0.074l-0.045,-0.073l-0.044,-0.072l-0.046,-0.072l-0.046,-0.072l-0.048,-0.071l-0.048,-0.07l-0.049,-0.07l-0.05,-0.069l-0.05,-0.068l-0.051,-0.068l-0.053,-0.067l-0.052,-0.067l-0.054,-0.066l-0.055,-0.065l-0.055,-0.065l-0.056,-0.064l-0.057,-0.063l-0.057,-0.062l-0.058,-0.062l-0.06,-0.062l-0.059,-0.06l-0.06,-0.059l-0.062,-0.06l-0.062,-0.058l-0.062,-0.057l-0.063,-0.057l-0.064,-0.056l-0.065,-0.055l-0.065,-0.055l-0.066,-0.054l-0.067,-0.052l-0.067,-0.053l-0.068,-0.051l-0.068,-0.05l-0.069,-0.05l-0.07,-0.049l-0.07,-0.048l-0.071,-0.048l-0.072,-0.046l-0.072,-0.046l-0.072,-0.044l-0.073,-0.045l-0.074,-0.042l-0.074,-0.043l-0.075,-0.041l-0.076,-0.04l-0.076,-0.04l-0.076,-0.038l-0.078,-0.039l-0.077,-0.036l-0.079,-0.036l-0.078,-0.035l-0.079,-0.034l-0.08,-0.033l-0.08,-0.032l-0.081,-0.032l-0.08,-0.03l-0.082,-0.029l-0.081,-0.028l-0.083,-0.028l-0.083,-0.026l-0.083,-0.025l-0.084,-0.024l-0.084,-0.024l-0.085,-0.022l-0.085,-0.022l-0.084,-0.02l-0.086,-0.019l-0.086,-0.018l-0.086,-0.018l-0.088,-0.016l-0.087,-0.015l-0.088,-0.014l-0.087,-0.012l-0.089,-0.013l-0.088,-0.01l-0.09,-0.01l-0.089,-0.008l-0.09,-0.007l-0.089,-0.007l-0.091,-0.005l-0.09,-0.004l-0.092,-0.003l-0.09,-0.001l-0.092,-0.001l-0.092,0.001Z"/><circle cx="9" cy="9" r="5.619" style="fill:#5e2ca5;"/></svg>