<?xml version="1.0" encoding="UTF-8" standalone="no"?><!DOCTYPE svg PUBLIC "-//W3C//DTD SVG 1.1//EN" "http://www.w3.org/Graphics/SVG/1.1/DTD/svg11.dtd"><svg width="100%" height="100%" viewBox="0 0 18 18" version="1.1" xmlns="http://www.w3.org/2000/svg" xmlns:xlink="http://www.w3.org/1999/xlink" xml:space="preserve" xmlns:serif="http://www.serif.com/" style="fill-rule:evenodd;clip-rule:evenodd;stroke-linejoin:round;stroke-miterlimit:1.41421;"><circle cx="9" cy="9" r="9" style="fill:#fff;"/><path d="M9.116,0.001l0.116,0.002l0.116,0.004l0.115,0.005l0.115,0.006l0.114,0.008l0.114,0.01l0.114,0.011l0.113,0.012l0.113,0.013l0.112,0.015l0.112,0.017l0.111,0.018l0.111,0.019l0.111,0.02l0.11,0.022l0.109,0.023l0.218,0.05l0.216,0.056l0.107,0.03l0.106,0.031l0.106,0.032l0.105,0.033l0.105,0.035l0.105,0.036l0.103,0.037l0.103,0.039l0.103,0.04l0.102,0.041l0.101,0.042l0.1,0.043l0.2,0.09l0.098,0.047l0.098,0.048l0.098,0.049l0.192,0.102l0.096,0.052l0.094,0.054l0.094,0.055l0.093,0.056l0.093,0.057l0.091,0.058l0.091,0.059l0.091,0.06l0.089,0.061l0.089,0.062l0.174,0.128l0.087,0.065l0.17,0.134l0.083,0.068l0.083,0.07l0.082,0.07l0.082,0.071l0.08,0.072l0.08,0.073l0.078,0.074l0.078,0.075l0.077,0.076l0.076,0.077l0.075,0.078l0.074,0.078l0.073,0.08l0.072,0.08l0.071,0.082l0.07,0.082l0.07,0.083l0.068,0.083l0.134,0.17l0.065,0.087l0.128,0.174l0.062,0.089l0.061,0.089l0.06,0.091l0.059,0.091l0.058,0.091l0.057,0.093l0.056,0.093l0.055,0.094l0.054,0.094l0.052,0.096l0.102,0.192l0.049,0.098l0.048,0.098l0.047,0.098l0.09,0.2l0.043,0.1l0.042,0.101l0.041,0.102l0.04,0.103l0.039,0.103l0.037,0.103l0.036,0.105l0.035,0.105l0.033,0.105l0.032,0.106l0.031,0.106l0.03,0.107l0.056,0.216l0.05,0.218l0.023,0.109l0.022,0.11l0.02,0.111l0.019,0.111l0.018,0.111l0.017,0.112l0.015,0.112l0.013,0.113l0.012,0.113l0.011,0.114l0.01,0.114l0.008,0.114l0.006,0.115l0.005,0.115l0.004,0.116l0.002,0.116l0.001,0.116l-0.001,0.116l-0.002,0.116l-0.004,0.116l-0.005,0.115l-0.006,0.115l-0.008,0.114l-0.01,0.114l-0.011,0.114l-0.012,0.113l-0.013,0.113l-0.015,0.112l-0.017,0.112l-0.018,0.111l-0.019,0.111l-0.02,0.111l-0.022,0.11l-0.023,0.109l-0.025,0.109l-0.025,0.109l-0.028,0.108l-0.028,0.108l-0.03,0.107l-0.031,0.106l-0.032,0.106l-0.033,0.105l-0.035,0.105l-0.036,0.105l-0.037,0.103l-0.039,0.103l-0.04,0.103l-0.041,0.102l-0.042,0.101l-0.043,0.1l-0.045,0.1l-0.045,0.1l-0.047,0.098l-0.048,0.098l-0.049,0.098l-0.051,0.096l-0.051,0.096l-0.052,0.096l-0.054,0.094l-0.055,0.094l-0.056,0.093l-0.057,0.093l-0.058,0.091l-0.059,0.091l-0.06,0.091l-0.061,0.089l-0.062,0.089l-0.064,0.087l-0.064,0.087l-0.065,0.087l-0.067,0.085l-0.067,0.085l-0.068,0.083l-0.07,0.083l-0.07,0.082l-0.071,0.082l-0.072,0.08l-0.073,0.08l-0.074,0.078l-0.075,0.078l-0.076,0.077l-0.077,0.076l-0.078,0.075l-0.078,0.074l-0.08,0.073l-0.08,0.072l-0.082,0.071l-0.082,0.07l-0.083,0.07l-0.083,0.068l-0.085,0.067l-0.085,0.067l-0.087,0.065l-0.087,0.064l-0.087,0.064l-0.089,0.062l-0.089,0.061l-0.091,0.06l-0.091,0.059l-0.091,0.058l-0.093,0.057l-0.093,0.056l-0.094,0.055l-0.094,0.054l-0.096,0.052l-0.096,0.051l-0.096,0.051l-0.098,0.049l-0.098,0.048l-0.098,0.047l-0.1,0.045l-0.1,0.045l-0.1,0.043l-0.101,0.042l-0.102,0.041l-0.103,0.04l-0.103,0.039l-0.103,0.037l-0.105,0.036l-0.105,0.035l-0.105,0.033l-0.106,0.032l-0.106,0.031l-0.107,0.03l-0.108,0.028l-0.108,0.028l-0.109,0.025l-0.109,0.025l-0.109,0.023l-0.11,0.022l-0.111,0.02l-0.111,0.019l-0.111,0.018l-0.112,0.017l-0.112,0.015l-0.113,0.013l-0.113,0.012l-0.114,0.011l-0.114,0.01l-0.114,0.008l-0.115,0.006l-0.115,0.005l-0.116,0.004l-0.116,0.002l-0.116,0.001l-0.116,-0.001l-0.116,-0.002l-0.116,-0.004l-0.115,-0.005l-0.115,-0.006l-0.114,-0.008l-0.114,-0.01l-0.114,-0.011l-0.113,-0.012l-0.113,-0.013l-0.112,-0.015l-0.112,-0.017l-0.111,-0.018l-0.111,-0.019l-0.111,-0.02l-0.11,-0.022l-0.109,-0.023l-0.109,-0.025l-0.109,-0.025l-0.108,-0.028l-0.108,-0.028l-0.107,-0.03l-0.106,-0.031l-0.106,-0.032l-0.105,-0.033l-0.105,-0.035l-0.105,-0.036l-0.103,-0.037l-0.103,-0.039l-0.103,-0.04l-0.102,-0.041l-0.101,-0.042l-0.1,-0.043l-0.1,-0.045l-0.1,-0.045l-0.098,-0.047l-0.098,-0.048l-0.098,-0.049l-0.096,-0.051l-0.096,-0.051l-0.096,-0.052l-0.094,-0.054l-0.094,-0.055l-0.093,-0.056l-0.093,-0.057l-0.091,-0.058l-0.091,-0.059l-0.091,-0.06l-0.089,-0.061l-0.089,-0.062l-0.087,-0.064l-0.087,-0.064l-0.087,-0.065l-0.085,-0.067l-0.085,-0.067l-0.083,-0.068l-0.083,-0.07l-0.082,-0.07l-0.082,-0.071l-0.08,-0.072l-0.08,-0.073l-0.078,-0.074l-0.078,-0.075l-0.077,-0.076l-0.076,-0.077l-0.075,-0.078l-0.074,-0.078l-0.073,-0.08l-0.072,-0.08l-0.071,-0.082l-0.07,-0.082l-0.07,-0.083l-0.068,-0.083l-0.067,-0.085l-0.067,-0.085l-0.065,-0.087l-0.064,-0.087l-0.064,-0.087l-0.062,-0.089l-0.061,-0.089l-0.06,-0.091l-0.059,-0.091l-0.058,-0.091l-0.057,-0.093l-0.056,-0.093l-0.055,-0.094l-0.054,-0.094l-0.052,-0.096l-0.051,-0.096l-0.051,-0.096l-0.049,-0.098l-0.048,-0.098l-0.047,-0.098l-0.045,-0.1l-0.045,-0.1l-0.043,-0.1l-0.042,-0.101l-0.041,-0.102l-0.04,-0.103l-0.039,-0.103l-0.037,-0.103l-0.036,-0.105l-0.035,-0.105l-0.033,-0.105l-0.032,-0.106l-0.031,-0.106l-0.03,-0.107l-0.028,-0.108l-0.028,-0.108l-0.025,-0.109l-0.025,-0.109l-0.023,-0.109l-0.022,-0.11l-0.02,-0.111l-0.019,-0.111l-0.018,-0.111l-0.017,-0.112l-0.015,-0.112l-0.013,-0.113l-0.012,-0.113l-0.011,-0.114l-0.01,-0.114l-0.008,-0.114l-0.006,-0.115l-0.005,-0.115l-0.004,-0.116l-0.002,-0.116l-0.001,-0.116l0.001,-0.116l0.002,-0.116l0.004,-0.116l0.005,-0.115l0.006,-0.115l0.008,-0.114l0.01,-0.114l0.011,-0.114l0.012,-0.113l0.013,-0.113l0.015,-0.112l0.017,-0.112l0.018,-0.111l0.019,-0.111l0.02,-0.111l0.022,-0.11l0.023,-0.109l0.025,-0.109l0.025,-0.109l0.028,-0.108l0.028,-0.108l0.03,-0.107l0.031,-0.106l0.032,-0.106l0.033,-0.105l0.035,-0.105l0.036,-0.105l0.037,-0.103l0.039,-0.103l0.04,-0.103l0.041,-0.102l0.042,-0.101l0.043,-0.1l0.045,-0.1l0.045,-0.1l0.047,-0.098l0.048,-0.098l0.049,-0.098l0.051,-0.096l0.051,-0.096l0.052,-0.096l0.054,-0.094l0.055,-0.094l0.056,-0.093l0.057,-0.093l0.058,-0.091l0.059,-0.091l0.06,-0.091l0.061,-0.089l0.062,-0.089l0.064,-0.087l0.064,-0.087l0.065,-0.087l0.067,-0.085l0.067,-0.085l0.068,-0.083l0.07,-0.083l0.07,-0.082l0.071,-0.082l0.072,-0.08l0.073,-0.08l0.074,-0.078l0.075,-0.078l0.076,-0.077l0.077,-0.076l0.078,-0.075l0.078,-0.074l0.08,-0.073l0.08,-0.072l0.082,-0.071l0.082,-0.07l0.083,-0.07l0.083,-0.068l0.085,-0.067l0.085,-0.067l0.087,-0.065l0.087,-0.064l0.087,-0.064l0.089,-0.062l0.089,-0.061l0.091,-0.06l0.091,-0.059l0.091,-0.058l0.093,-0.057l0.093,-0.056l0.094,-0.055l0.094,-0.054l0.096,-0.052l0.096,-0.051l0.096,-0.051l0.098,-0.049l0.098,-0.048l0.098,-0.047l0.1,-0.045l0.1,-0.045l0.1,-0.043l0.101,-0.042l0.102,-0.041l0.103,-0.04l0.103,-0.039l0.103,-0.037l0.105,-0.036l0.105,-0.035l0.105,-0.033l0.106,-0.032l0.106,-0.031l0.107,-0.03l0.108,-0.028l0.108,-0.028l0.109,-0.025l0.109,-0.025l0.109,-0.023l0.11,-0.022l0.111,-0.02l0.111,-0.019l0.111,-0.018l0.112,-0.017l0.112,-0.015l0.113,-0.013l0.113,-0.012l0.114,-0.011l0.114,-0.01l0.114,-0.008l0.115,-0.006l0.115,-0.005l0.116,-0.004l0.116,-0.002l0.116,-0.001l0.116,0.001Zm-0.226,0.5l-0.109,0.002l-0.11,0.003l-0.108,0.005l-0.109,0.006l-0.108,0.008l-0.108,0.009l-0.107,0.01l-0.107,0.012l-0.106,0.012l-0.107,0.015l-0.105,0.015l-0.105,0.017l-0.105,0.018l-0.105,0.019l-0.104,0.021l-0.103,0.022l-0.103,0.023l-0.102,0.024l-0.102,0.026l-0.102,0.027l-0.101,0.028l-0.1,0.029l-0.1,0.03l-0.1,0.032l-0.099,0.033l-0.098,0.034l-0.098,0.035l-0.097,0.036l-0.097,0.038l-0.096,0.038l-0.096,0.04l-0.095,0.041l-0.094,0.042l-0.094,0.043l-0.093,0.044l-0.093,0.046l-0.092,0.046l-0.091,0.048l-0.091,0.048l-0.09,0.05l-0.089,0.051l-0.089,0.051l-0.088,0.053l-0.087,0.054l-0.086,0.055l-0.086,0.055l-0.086,0.057l-0.084,0.058l-0.084,0.059l-0.083,0.06l-0.082,0.06l-0.081,0.062l-0.081,0.063l-0.08,0.063l-0.079,0.065l-0.079,0.065l-0.077,0.067l-0.077,0.067l-0.076,0.068l-0.075,0.069l-0.074,0.07l-0.074,0.071l-0.072,0.072l-0.072,0.072l-0.071,0.074l-0.07,0.074l-0.069,0.075l-0.068,0.076l-0.067,0.077l-0.067,0.077l-0.065,0.079l-0.065,0.079l-0.063,0.08l-0.063,0.081l-0.062,0.081l-0.06,0.082l-0.06,0.083l-0.059,0.084l-0.058,0.084l-0.057,0.086l-0.055,0.086l-0.055,0.086l-0.054,0.087l-0.053,0.088l-0.051,0.089l-0.051,0.089l-0.05,0.09l-0.048,0.091l-0.048,0.091l-0.046,0.092l-0.046,0.093l-0.044,0.093l-0.043,0.094l-0.042,0.094l-0.041,0.095l-0.04,0.096l-0.038,0.096l-0.038,0.097l-0.036,0.097l-0.035,0.098l-0.034,0.098l-0.033,0.099l-0.032,0.1l-0.03,0.1l-0.029,0.1l-0.028,0.101l-0.027,0.102l-0.026,0.102l-0.024,0.102l-0.023,0.103l-0.022,0.103l-0.021,0.104l-0.019,0.105l-0.018,0.105l-0.017,0.105l-0.015,0.105l-0.015,0.107l-0.012,0.106l-0.012,0.107l-0.01,0.107l-0.009,0.108l-0.008,0.108l-0.006,0.109l-0.005,0.108l-0.003,0.11l-0.002,0.109l-0.001,0.11l0.001,0.11l0.002,0.109l0.003,0.11l0.005,0.108l0.006,0.109l0.008,0.108l0.009,0.108l0.01,0.107l0.012,0.107l0.012,0.106l0.015,0.107l0.015,0.105l0.017,0.105l0.018,0.105l0.019,0.105l0.021,0.104l0.022,0.103l0.023,0.103l0.024,0.102l0.026,0.102l0.027,0.102l0.028,0.101l0.029,0.1l0.03,0.1l0.032,0.1l0.033,0.099l0.034,0.098l0.035,0.098l0.036,0.097l0.038,0.097l0.038,0.096l0.04,0.096l0.041,0.095l0.042,0.094l0.043,0.094l0.044,0.093l0.046,0.093l0.046,0.092l0.096,0.182l0.05,0.09l0.102,0.178l0.053,0.088l0.054,0.087l0.11,0.172l0.057,0.086l0.058,0.084l0.059,0.084l0.06,0.083l0.06,0.082l0.062,0.081l0.063,0.081l0.063,0.08l0.13,0.158l0.134,0.154l0.068,0.076l0.069,0.075l0.07,0.074l0.071,0.074l0.144,0.144l0.074,0.071l0.074,0.07l0.075,0.069l0.076,0.068l0.154,0.134l0.158,0.13l0.08,0.063l0.081,0.063l0.081,0.062l0.082,0.06l0.083,0.06l0.084,0.059l0.084,0.058l0.086,0.057l0.172,0.11l0.087,0.054l0.088,0.053l0.178,0.102l0.09,0.05l0.182,0.096l0.092,0.046l0.093,0.046l0.093,0.044l0.094,0.043l0.094,0.042l0.095,0.041l0.096,0.04l0.096,0.038l0.097,0.038l0.097,0.036l0.098,0.035l0.098,0.034l0.099,0.033l0.1,0.032l0.1,0.03l0.1,0.029l0.101,0.028l0.102,0.027l0.102,0.026l0.102,0.024l0.103,0.023l0.103,0.022l0.104,0.021l0.105,0.019l0.105,0.018l0.105,0.017l0.105,0.015l0.107,0.015l0.106,0.012l0.107,0.012l0.107,0.01l0.108,0.009l0.108,0.008l0.109,0.006l0.108,0.005l0.11,0.003l0.109,0.002l0.11,0.001l0.11,-0.001l0.109,-0.002l0.11,-0.003l0.108,-0.005l0.109,-0.006l0.108,-0.008l0.108,-0.009l0.107,-0.01l0.107,-0.012l0.106,-0.012l0.107,-0.015l0.105,-0.015l0.105,-0.017l0.105,-0.018l0.105,-0.019l0.104,-0.021l0.103,-0.022l0.103,-0.023l0.102,-0.024l0.102,-0.026l0.102,-0.027l0.101,-0.028l0.1,-0.029l0.1,-0.03l0.1,-0.032l0.099,-0.033l0.098,-0.034l0.098,-0.035l0.097,-0.036l0.097,-0.038l0.096,-0.038l0.096,-0.04l0.095,-0.041l0.094,-0.042l0.094,-0.043l0.093,-0.044l0.093,-0.046l0.092,-0.046l0.091,-0.048l0.091,-0.048l0.09,-0.05l0.089,-0.051l0.089,-0.051l0.088,-0.053l0.087,-0.054l0.086,-0.055l0.086,-0.055l0.086,-0.057l0.084,-0.058l0.084,-0.059l0.083,-0.06l0.082,-0.06l0.081,-0.062l0.081,-0.063l0.08,-0.063l0.079,-0.065l0.079,-0.065l0.077,-0.067l0.077,-0.067l0.076,-0.068l0.075,-0.069l0.074,-0.07l0.074,-0.071l0.072,-0.072l0.072,-0.072l0.071,-0.074l0.07,-0.074l0.069,-0.075l0.068,-0.076l0.067,-0.077l0.067,-0.077l0.065,-0.079l0.065,-0.079l0.063,-0.08l0.063,-0.081l0.062,-0.081l0.06,-0.082l0.06,-0.083l0.059,-0.084l0.058,-0.084l0.057,-0.086l0.055,-0.086l0.055,-0.086l0.054,-0.087l0.053,-0.088l0.051,-0.089l0.051,-0.089l0.05,-0.09l0.048,-0.091l0.048,-0.091l0.046,-0.092l0.046,-0.093l0.044,-0.093l0.043,-0.094l0.042,-0.094l0.041,-0.095l0.04,-0.096l0.038,-0.096l0.038,-0.097l0.036,-0.097l0.035,-0.098l0.034,-0.098l0.033,-0.099l0.032,-0.1l0.03,-0.1l0.029,-0.1l0.028,-0.101l0.027,-0.102l0.026,-0.102l0.024,-0.102l0.023,-0.103l0.022,-0.103l0.021,-0.104l0.019,-0.105l0.018,-0.105l0.017,-0.105l0.015,-0.105l0.015,-0.107l0.012,-0.106l0.012,-0.107l0.01,-0.107l0.009,-0.108l0.008,-0.108l0.006,-0.109l0.005,-0.108l0.003,-0.11l0.002,-0.109l0.001,-0.11l-0.001,-0.11l-0.002,-0.109l-0.003,-0.11l-0.005,-0.108l-0.006,-0.109l-0.008,-0.108l-0.009,-0.108l-0.01,-0.107l-0.012,-0.107l-0.012,-0.106l-0.015,-0.107l-0.015,-0.105l-0.017,-0.105l-0.018,-0.105l-0.019,-0.105l-0.021,-0.104l-0.022,-0.103l-0.023,-0.103l-0.024,-0.102l-0.026,-0.102l-0.027,-0.102l-0.028,-0.101l-0.029,-0.1l-0.03,-0.1l-0.032,-0.1l-0.033,-0.099l-0.034,-0.098l-0.035,-0.098l-0.036,-0.097l-0.038,-0.097l-0.038,-0.096l-0.04,-0.096l-0.041,-0.095l-0.042,-0.094l-0.043,-0.094l-0.044,-0.093l-0.046,-0.093l-0.046,-0.092l-0.048,-0.091l-0.048,-0.091l-0.05,-0.09l-0.051,-0.089l-0.051,-0.089l-0.053,-0.088l-0.054,-0.087l-0.055,-0.086l-0.055,-0.086l-0.057,-0.086l-0.058,-0.084l-0.059,-0.084l-0.06,-0.083l-0.06,-0.082l-0.062,-0.081l-0.063,-0.081l-0.063,-0.08l-0.065,-0.079l-0.065,-0.079l-0.067,-0.077l-0.067,-0.077l-0.068,-0.076l-0.069,-0.075l-0.07,-0.074l-0.071,-0.074l-0.072,-0.072l-0.072,-0.072l-0.074,-0.071l-0.074,-0.07l-0.075,-0.069l-0.076,-0.068l-0.077,-0.067l-0.077,-0.067l-0.079,-0.065l-0.079,-0.065l-0.08,-0.063l-0.081,-0.063l-0.081,-0.062l-0.082,-0.06l-0.083,-0.06l-0.084,-0.059l-0.084,-0.058l-0.086,-0.057l-0.086,-0.055l-0.086,-0.055l-0.087,-0.054l-0.088,-0.053l-0.089,-0.051l-0.089,-0.051l-0.09,-0.05l-0.091,-0.048l-0.091,-0.048l-0.092,-0.046l-0.093,-0.046l-0.093,-0.044l-0.094,-0.043l-0.094,-0.042l-0.095,-0.041l-0.096,-0.04l-0.096,-0.038l-0.097,-0.038l-0.097,-0.036l-0.098,-0.035l-0.098,-0.034l-0.099,-0.033l-0.1,-0.032l-0.1,-0.03l-0.1,-0.029l-0.101,-0.028l-0.102,-0.027l-0.102,-0.026l-0.102,-0.024l-0.103,-0.023l-0.103,-0.022l-0.104,-0.021l-0.105,-0.019l-0.105,-0.018l-0.105,-0.017l-0.105,-0.015l-0.107,-0.015l-0.106,-0.012l-0.107,-0.012l-0.107,-0.01l-0.108,-0.009l-0.108,-0.008l-0.109,-0.006l-0.108,-0.005l-0.11,-0.003l-0.109,-0.002l-0.11,-0.001l-0.11,0.001Z"/><circle cx="9" cy="9" r="6.75" style="fill:#5e2ca5;"/></svg>