<svg version="1" xmlns="http://www.w3.org/2000/svg" width="1365.333" height="1365.333" viewBox="0 0 1024.000000 1024.000000"><path d="M81 .7C61 4.1 42.2 13.8 28 28 15.7 40.3 8 53.5 2.8 71.6L.5 79.5v865l2.3 7.9C8 970.5 15.7 983.7 28 996c12.3 12.3 25.5 20 43.6 25.2l7.9 2.3h865l7.9-2.3c18.1-5.2 31.3-12.9 43.6-25.2 12.3-12.3 20-25.5 25.2-43.6l2.3-7.9v-865l-2.3-7.9C1016 53.5 1008.3 40.3 996 28c-12-12.1-24-19.1-42-24.8L945.5.5l-431-.1C277.4.3 82.4.5 81 .7zm171.5 338.4c17.7 2.6 38.7 9.6 55 18.2l8 4.2.3 29.9.2 29.9-4.2-3.5c-19.1-15.6-44.4-27.5-67.2-31.4-12.6-2.2-37.7-1.4-49.6 1.5-39.1 9.9-73.1 41.5-86.7 80.6-9.1 26.3-9.5 59.1-1.1 85.4 13.6 42.7 50.1 75.4 92.9 83.6 17.6 3.3 39.5 2.9 55.4-1.1 14.9-3.8 33.9-13.9 51.4-27.4l9.1-7.1v60l-4.4 2.6c-6.3 3.7-20.8 9.8-31.7 13.4-36.5 12-78.6 11.5-115.4-1.3-52-18.1-97-67.6-109-120.1-7.5-32.6-6.3-67.3 3.5-97.5 14.6-45 51.2-86.5 93.5-106 28.5-13.2 67.6-18.6 100-13.9zm654.2.4c17.2 2.8 39.8 10.6 54.6 18.9l6.7 3.7v59.2l-3.2-2.7c-7.2-5.8-22.9-15.8-31.5-20-21-10.5-37.7-14.1-61.8-13.3-23.1.8-39.2 5.3-56.6 15.8-30.8 18.7-52.1 48.9-59.5 84.4-2.4 11.3-2.7 42.1-.5 53 6 30.7 23 58.2 47.2 76.4 19.6 14.8 37.8 21.8 62.9 24.3 14.3 1.4 31.9.1 44.1-3.3 14.8-4 35.8-15.7 52.4-29.1l6-4.8.3 29.2c.1 16.1 0 29.8-.2 30.4-.2.5-5.1 3.3-10.7 6.1-48.9 24.1-106.7 25.2-154.9 3.1-28.4-13.1-56.6-38.1-74.3-66.1-26.7-41.9-32.9-99.2-16-148.1 17.6-51.2 60.2-94 109.8-110.4 25.4-8.4 58.6-11 85.2-6.7zM441 410v66h146V344h50v337h-50V523H441v158h-51V344h51v66z"/></svg>